<?xml version="1.0" encoding="UTF-8"?>
<!-- Created with Inkscape (http://www.inkscape.org/) -->
<svg width="150" height="150" version="1.1" viewBox="0 0 39.688 39.688" xmlns="http://www.w3.org/2000/svg" xmlns:cc="http://creativecommons.org/ns#" xmlns:dc="http://purl.org/dc/elements/1.1/" xmlns:rdf="http://www.w3.org/1999/02/22-rdf-syntax-ns#">
 <metadata>
  <rdf:RDF>
   <cc:Work rdf:about="">
    <dc:format>image/svg+xml</dc:format>
    <dc:type rdf:resource="http://purl.org/dc/dcmitype/StillImage"/>
    <dc:title/>
   </cc:Work>
  </rdf:RDF>
 </metadata>
 <g transform="translate(0 -257.31)">
  <g transform="matrix(.30729 0 0 .30729 -33.67 241.33)">
   <circle id="boule" cx="173.53" cy="112.66" r="60.287" fill="#fff" fill-opacity=".37342" opacity=".98" stroke="#faffff" stroke-width=".616" boule=""/>
   <rect x="133.59" y="174.1" width="78.462" height="8.2648" fill="#483e37" opacity=".98"/>
   <rect id="tronc" x="165.9" y="133.48" width="10.363" height="26.9" fill="#c49a6c" stroke-width=".24255"/>
   <g id="neige" transform="matrix(.92941 0 0 .92941 98.03 -76.627)">
    <g transform="matrix(.80952 0 0 .80952 11.944 43.736)" fill="#fff">
     <g transform="translate(-17.207,67.45)">
      <path d="m90.604 190.23a19.377 9.7553 0 0 1-19.377 9.7553 19.377 9.7553 0 0 1-19.377-9.7553 19.377 9.7553 0 0 1 19.377-9.7553 19.377 9.7553 0 0 1 19.377 9.7553z" opacity=".98"/>
      <path d="m132.83 193.43a26.326 10.824 0 0 1-26.326 10.824 26.326 10.824 0 0 1-26.326-10.824 26.326 10.824 0 0 1 26.326-10.824 26.326 10.824 0 0 1 26.326 10.824z" opacity=".98"/>
      <path d="m152.88 188.76a19.644 12.562 0 0 1-19.644 12.562 19.644 12.562 0 0 1-19.644-12.562 19.644 12.562 0 0 1 19.644-12.562 19.644 12.562 0 0 1 19.644 12.562z" opacity=".98"/>
     </g>
     <ellipse cx="84.858" cy="261.45" rx="47.173" ry="9.889" opacity=".98"/>
    </g>
   </g>
   <rect x="131.38" y="160.28" width="83.533" height="14.741" ry="4.5357" fill="#917c6f" opacity=".98"/>
   <g transform="translate(21.393 -78.506)" fill="#3cb54a">
    <polygon id="hautsapin" transform="matrix(.25589 0 0 .22991 6.6378 132.51)" points="559 106.4 622.5 212.9 495.5 212.9"/>
    <polygon id="milieusapin" transform="matrix(.25589 0 0 .22991 6.6378 132.51)" points="559 145.5 647.5 294 470.5 294"/>
    <polygon id="bassapin" transform="matrix(.25589 0 0 .22991 6.6378 132.51)" points="559 185.6 680.5 389.4 437.5 389.4"/>
   </g>
   <g transform="translate(21.393 -78.506)" fill="#fff" stroke-width=".24255">
    <path id="couleeNeige" d="m149.7 173.87c0.33265 0.25291 0.74207 0.41385 1.0747 0.66676 1.1771 0.87367 1.3306 2.4371 1.4074 3.8166 0.15354 2.9659 0.38383 5.9318 0.63972 8.8977 0.0768 0.68974 0.33265 1.5634 1.1003 1.6324 0.84443 0.046 1.2027-0.91966 1.2794-1.6784 0.33265-4.5063-0.61413-9.2655 1.4841-13.358 0.63972-1.2415 1.8168-2.4831 3.3521-2.4371 0.38383 0.023 0.84443 0.092 1.1259-0.13795 0.2303-0.20693 0.20471-0.5518 0.12795-0.82769-0.33266-1.3335-1.1259-2.5061-1.9192-3.6556-2.5844-3.7706-5.7319-6.9894-8.1372-10.829-0.33265-0.5288-0.74207-1.1036-1.4074-1.1726-0.69089-0.046-1.2538 0.50581-1.6377 1.0116-0.87002 1.1266-1.2794 2.2532-1.9192 3.4257-0.71649 1.3105-1.9703 2.3221-2.6868 3.6556-0.61412 1.1266-0.81883 2.667 0.2303 3.4947 0.35824 0.2759 0.79325 0.43684 1.2027 0.64376 2.9427 1.5864 2.303 5.1041 4.6827 6.8514z"/>
    <ellipse class="bouleSapin" cx="141.1" cy="189.34" rx="1.3562" ry="1.2185"/>
    <ellipse class="bouleSapin" cx="159.52" cy="203.11" rx="1.3562" ry="1.2185"/>
    <ellipse cx="148.32" cy="183.04" rx="1.3562" ry="1.2185"/>
    <ellipse cx="167.31" cy="214.13" rx="1.3562" ry="1.2185"/>
    <ellipse cx="130.92" cy="216.59" rx="1.3562" ry="1.2185"/>
    <ellipse cx="141.67" cy="217.22" rx="1.3562" ry="1.2185"/>
   </g>
   <g transform="translate(21.393 -78.506)" fill="#00692b" stroke-width=".24255">
    <ellipse cx="148.51" cy="202.57" rx="1.3562" ry="1.2185"/>
    <ellipse cx="160.3" cy="191.07" rx="1.3562" ry="1.2185"/>
    <ellipse cx="135.99" cy="205.57" rx="1.3562" ry="1.2185"/>
    <ellipse cx="154.16" cy="215.37" rx="1.3562" ry="1.2185"/>
    <ellipse cx="141.77" cy="177.43" rx="1.3562" ry="1.2185"/>
    <ellipse cx="160.68" cy="208.03" rx="1.3562" ry="1.2185"/>
   </g>
   <ellipse id="refletBoule" transform="matrix(.80007 -.5999 .77744 .62895 0 0)" cx="34.863" cy="148.68" rx="21.606" ry="4.0137" fill="#fff" fill-opacity=".37342" opacity=".98"/>
   <text id="s" transform="rotate(-19.73)" x="124.27802" y="185.42111" fill="#ffffff" font-family="sans-serif" font-size="10.583px" letter-spacing="0px" stroke-width=".26458" word-spacing="0px" style="line-height:1.25" xml:space="preserve"><tspan x="124.27802" y="185.42111" fill="#ffffff" font-family="Sawasdee" font-size="10.332px" stroke-width=".26458">s</tspan></text>
   <g transform="translate(21.393 -78.506)" fill="#6c5353">
    <rect transform="rotate(-8.6511)" x="123.92" y="241.5" width="1.5119" height="19.088" opacity=".98"/>
    <rect transform="rotate(-8.6511)" x="130.63" y="242.62" width="1.5119" height="19.088" opacity=".98"/>
    <rect x="160.45" y="224.43" width="6.8036" height="1.1339" opacity=".98"/>
    <rect x="161.21" y="229.34" width="6.8036" height="1.1339" opacity=".98"/>
    <rect x="162.15" y="234.68" width="6.8036" height="1.1339" opacity=".98"/>
   </g>
   <g id="moufleDroit" transform="matrix(-.30331 0 0 -.30331 253.51 192.53)">
    <path d="m222.84 188.84c1.6651 0.46567 3.2734 4.8824 2.6776 5.1121-2.5615 0.98037-7.1896 2.709-11.938 6.0639-0.0603 0.0423-0.1203 0.067-0.1838 0.0815-1.1994 0.25365-3.1676-4.276-2.709-5.6272 0.33126-0.97332 1.7882-2.099 5.8773-3.9405 2.582-1.1638 5.4783-1.9121 6.2759-1.6898" fill="#a80"/>
    <path d="m225.52 193.95c2.388-0.42016 6.6463 1.7953 6.459 4.3106-0.1905 2.5118-3.0868 0.93486-3.3937 1.5381-0.23636 0.46567 2.2405 2.8751 2.6882 7.3448 0.45191 4.4697-6.2368 8.4314-10.929 6.4312-5.9831-2.5506-6.943-13.455-6.943-13.455l-4e-3 -0.0243c0.0635-0.0145 0.12347-0.0392 0.1838-0.0815 4.7484-3.3549 9.3765-5.0835 11.938-6.0639" fill="#fc0"/>
    <g fill="#d4aa00">
     <path d="m212.24 193.47s0.11783 0.33302 0.29457 0.83255c0.0794 0.25189 0.20038 0.53587 0.30833 0.84667 0.11112 0.31009 0.2487 0.63183 0.37112 0.96026 0.0699 0.15946 0.1397 0.31891 0.2092 0.47625 0.0709 0.15628 0.12876 0.31644 0.20214 0.46143 0.15134 0.28681 0.27904 0.5648 0.40146 0.79517 0.27728 0.43391 0.4512 0.74224 0.4512 0.74224l0.0106 0.0187c0.0377 0.067 0.0141 0.15134-0.0526 0.18909-0.0575 0.0325-0.12841 0.0194-0.1711-0.0279 0 0-0.24271-0.26811-0.59055-0.69885-0.14781-0.22896-0.31609-0.49954-0.49212-0.79376-0.0833-0.14887-0.15346-0.30903-0.23178-0.4699-0.0741-0.16227-0.14957-0.32737-0.22507-0.49212-0.12382-0.33937-0.26352-0.67381-0.35701-0.99871-0.10019-0.3228-0.17921-0.6283-0.23918-0.89147-0.0674-0.26106-0.0984-0.48684-0.127-0.64241-0.0272-0.15593-0.0339-0.24448-0.0335-0.24448l-7e-4 -5e-3c-6e-3 -0.0769 0.0519-0.14464 0.12911-0.15063 0.0646-5e-3 0.12277 0.0346 0.14288 0.0931"/>
     <path d="m214.19 192.39s0.11853 0.31856 0.29598 0.79587c0.079 0.24165 0.20285 0.51188 0.30868 0.81033 0.0529 0.14922 0.12383 0.29668 0.18239 0.45191 0.0624 0.15381 0.12559 0.30973 0.18909 0.46601 0.0684 0.15346 0.13652 0.30692 0.20425 0.45826 0.0684 0.14993 0.12348 0.30516 0.20038 0.44133 0.0734 0.13899 0.13688 0.27728 0.20038 0.40675 0.0656 0.12806 0.11606 0.25788 0.1838 0.36266 0.25576 0.42968 0.41381 0.73236 0.41381 0.73236l8e-3 0.0152c0.0356 0.0681 9e-3 0.15205-0.0593 0.18803-0.0582 0.03-0.12841 0.0148-0.16969-0.0328 0 0-0.22648-0.26352-0.54751-0.68368-0.0822-0.10407-0.14605-0.23001-0.22719-0.35666-0.0776-0.12841-0.16333-0.26211-0.24377-0.40499-0.0868-0.14005-0.15416-0.29457-0.2293-0.44873-0.0723-0.15558-0.14605-0.31327-0.21978-0.47131-0.0706-0.15946-0.1263-0.32385-0.18839-0.48295-0.0603-0.16052-0.12241-0.31715-0.16933-0.47273-0.0974-0.31079-0.17992-0.60289-0.23989-0.85619-0.067-0.25047-0.10019-0.46708-0.12876-0.61701-0.0279-0.15063-0.0349-0.2353-0.0346-0.2353l-7.2e-4 -6e-3c-6e-3 -0.0769 0.0515-0.14499 0.12912-0.15099 0.0639-5e-3 0.121 0.0335 0.14252 0.0907"/>
     <path d="m216.58 191.31c-3.4e-4 0 0.14993 0.28963 0.36372 0.72531 0.20955 0.43815 0.4833 1.0231 0.75106 1.6087 0.13194 0.29386 0.27482 0.58102 0.39652 0.8576 0.13124 0.27023 0.25577 0.5207 0.35631 0.74048 0.11007 0.21202 0.20179 0.38911 0.26599 0.51329 0.0625 0.1263 0.0981 0.19862 0.0981 0.19862l6e-3 0.0123c0.0342 0.0695 6e-3 0.15275-0.0632 0.18697-0.06 0.0293-0.13088 0.0116-0.1711-0.0388 0 0-0.0512-0.0646-0.14146-0.1778-0.0438-0.0582-0.097-0.12877-0.15805-0.2092-0.0596-0.0818-0.13476-0.17074-0.20002-0.27587-0.13088-0.2092-0.28293-0.45543-0.43498-0.72425-0.14252-0.2727-0.29598-0.56409-0.43356-0.86148-0.13229-0.29916-0.27129-0.59655-0.37853-0.88371-0.11324-0.28469-0.21167-0.55386-0.28716-0.7874-0.15452-0.46638-0.23107-0.78599-0.23107-0.78599-0.0183-0.0751 0.0275-0.1517 0.10265-0.17039 0.0639-0.0159 0.12912 0.0162 0.15875 0.0716"/>
     <path d="m218.94 190.36s0.20849 0.25577 0.48083 0.66569c0.13864 0.2032 0.28716 0.44874 0.44239 0.71403 0.15769 0.26387 0.30374 0.55809 0.45684 0.84843 0.1397 0.29774 0.2787 0.59513 0.39688 0.88053 0.10971 0.28998 0.21025 0.56056 0.28787 0.79551 0.12946 0.4826 0.19861 0.80469 0.19896 0.80469 0.0162 0.0755-0.0317 0.14958-0.10689 0.16581-0.0646 0.0138-0.12841-0.0194-0.15557-0.0765l-5e-3 -0.0113c3.4e-4 0-0.1397-0.29316-0.3235-0.73378-0.10477-0.21696-0.22648-0.4699-0.34995-0.74331-0.13264-0.27022-0.27375-0.55844-0.41522-0.84666-0.28928-0.57644-0.5782-1.1529-0.79481-1.5847-0.10548-0.21908-0.19332-0.40076-0.2547-0.52811-0.0603-0.12947-0.0949-0.20355-0.0949-0.20355-0.0325-0.0702-2e-3 -0.15346 0.0681-0.18662 0.0596-0.0275 0.12947-9e-3 0.16898 0.0399"/>
     <path d="m221.29 189.65s0.055 0.049 0.14464 0.14852c0.09 0.0991 0.21907 0.23918 0.35771 0.41769 0.1457 0.17498 0.29175 0.39476 0.45332 0.62794 0.0734 0.12065 0.14958 0.24589 0.22684 0.37289 0.0734 0.12982 0.15734 0.25612 0.22084 0.39405 0.067 0.13582 0.13335 0.27199 0.19932 0.40605 0.0677 0.13264 0.12382 0.26846 0.17251 0.40287 0.0963 0.26847 0.20073 0.51224 0.25259 0.73554 0.10759 0.44556 0.16192 0.74225 0.16227 0.74225 0.0138 0.0758-0.0367 0.14852-0.11218 0.16263-0.0639 0.0116-0.12559-0.0222-0.15169-0.0787l-6e-3 -0.013c3.4e-4 0-0.12524-0.26952-0.28752-0.67275-0.078-0.20249-0.20355-0.42757-0.31221-0.67627-0.10442-0.25083-0.25788-0.50095-0.38382-0.76271-0.13053-0.25964-0.28363-0.50871-0.40887-0.75177-0.13758-0.23742-0.26564-0.45861-0.37571-0.6484-0.22225-0.3803-0.37077-0.63395-0.37077-0.63395-0.0395-0.067-0.0166-0.1531 0.0504-0.19261 0.054-0.0314 0.1196-0.0233 0.16405 0.0155l5e-3 4e-3"/>
    </g>
   </g>
   <g transform="rotate(14.188 513.65 234.41)">
    <rect x="173.86" y="224.97" width="1.1693" height=".73499" fill="#d40000" opacity=".98"/>
    <rect x="173.86" y="225.71" width="1.1693" height=".73499" fill="#fff" opacity=".98"/>
    <rect x="173.86" y="226.44" width="1.1693" height=".73499" fill="#d40000" opacity=".98"/>
    <rect x="173.86" y="227.18" width="1.1693" height=".73499" fill="#f9f9f9" opacity=".98"/>
   </g>
   <g id="jambeDroite" transform="rotate(-11.911 -212.4 110.51)">
    <rect x="173.86" y="224.97" width="1.1693" height=".73499" fill="#d40000" opacity=".98"/>
    <rect x="173.86" y="225.71" width="1.1693" height=".73499" fill="#fff" opacity=".98"/>
    <rect x="173.86" y="226.44" width="1.1693" height=".73499" fill="#d40000" opacity=".98"/>
    <rect x="173.86" y="227.18" width="1.1693" height=".73499" fill="#f9f9f9" opacity=".98"/>
   </g>
   <rect id="corps" transform="rotate(13.703)" x="212.97" y="83.561" width="7.8519" height="10.44" ry="1.6369" fill="#a02c2c" opacity=".98"/>
   <path id="tete" d="m187.05 127.43 9.8521 2.3258-2.487 8.8654-9.711-2.4516z" fill="#fca" opacity=".98"/>
   <path d="m154.91 111.88c4.9291 2.1021 9.8578 4.2041 15.701 4.9993 5.8432 0.79525 12.602 0.28395 19.359-0.22724" fill="none" stroke="#a00" stroke-width=".86103px"/>
   <g id="moufleGauche" transform="matrix(.14896 -.26422 -.26422 -.14896 200.49 224.73)">
    <path d="m222.84 188.84c1.6651 0.46567 3.2734 4.8824 2.6776 5.1121-2.5615 0.98037-7.1896 2.709-11.938 6.0639-0.0603 0.0423-0.1203 0.067-0.1838 0.0815-1.1994 0.25365-3.1676-4.276-2.709-5.6272 0.33126-0.97332 1.7882-2.099 5.8773-3.9405 2.582-1.1638 5.4783-1.9121 6.2759-1.6898" fill="#a80"/>
    <path d="m225.52 193.95c2.388-0.42016 6.6463 1.7953 6.459 4.3106-0.1905 2.5118-3.0868 0.93486-3.3937 1.5381-0.23636 0.46567 2.2405 2.8751 2.6882 7.3448 0.45191 4.4697-6.2368 8.4314-10.929 6.4312-5.9831-2.5506-6.943-13.455-6.943-13.455l-4e-3 -0.0243c0.0635-0.0145 0.12347-0.0392 0.1838-0.0815 4.7484-3.3549 9.3765-5.0835 11.938-6.0639" fill="#fc0"/>
    <g fill="#d4aa00">
     <path d="m212.24 193.47s0.11783 0.33302 0.29457 0.83255c0.0794 0.25189 0.20038 0.53587 0.30833 0.84667 0.11112 0.31009 0.2487 0.63183 0.37112 0.96026 0.0699 0.15946 0.1397 0.31891 0.2092 0.47625 0.0709 0.15628 0.12876 0.31644 0.20214 0.46143 0.15134 0.28681 0.27904 0.5648 0.40146 0.79517 0.27728 0.43391 0.4512 0.74224 0.4512 0.74224l0.0106 0.0187c0.0377 0.067 0.0141 0.15134-0.0526 0.18909-0.0575 0.0325-0.12841 0.0194-0.1711-0.0279 0 0-0.24271-0.26811-0.59055-0.69885-0.14781-0.22896-0.31609-0.49954-0.49212-0.79376-0.0833-0.14887-0.15346-0.30903-0.23178-0.4699-0.0741-0.16227-0.14957-0.32737-0.22507-0.49212-0.12382-0.33937-0.26352-0.67381-0.35701-0.99871-0.10019-0.3228-0.17921-0.6283-0.23918-0.89147-0.0674-0.26106-0.0984-0.48684-0.127-0.64241-0.0272-0.15593-0.0339-0.24448-0.0335-0.24448l-7e-4 -5e-3c-6e-3 -0.0769 0.0519-0.14464 0.12911-0.15063 0.0646-5e-3 0.12277 0.0346 0.14288 0.0931"/>
     <path d="m214.19 192.39s0.11853 0.31856 0.29598 0.79587c0.079 0.24165 0.20285 0.51188 0.30868 0.81033 0.0529 0.14922 0.12383 0.29668 0.18239 0.45191 0.0624 0.15381 0.12559 0.30973 0.18909 0.46601 0.0684 0.15346 0.13652 0.30692 0.20425 0.45826 0.0684 0.14993 0.12348 0.30516 0.20038 0.44133 0.0734 0.13899 0.13688 0.27728 0.20038 0.40675 0.0656 0.12806 0.11606 0.25788 0.1838 0.36266 0.25576 0.42968 0.41381 0.73236 0.41381 0.73236l8e-3 0.0152c0.0356 0.0681 9e-3 0.15205-0.0593 0.18803-0.0582 0.03-0.12841 0.0148-0.16969-0.0328 0 0-0.22648-0.26352-0.54751-0.68368-0.0822-0.10407-0.14605-0.23001-0.22719-0.35666-0.0776-0.12841-0.16333-0.26211-0.24377-0.40499-0.0868-0.14005-0.15416-0.29457-0.2293-0.44873-0.0723-0.15558-0.14605-0.31327-0.21978-0.47131-0.0706-0.15946-0.1263-0.32385-0.18839-0.48295-0.0603-0.16052-0.12241-0.31715-0.16933-0.47273-0.0974-0.31079-0.17992-0.60289-0.23989-0.85619-0.067-0.25047-0.10019-0.46708-0.12876-0.61701-0.0279-0.15063-0.0349-0.2353-0.0346-0.2353l-7.2e-4 -6e-3c-6e-3 -0.0769 0.0515-0.14499 0.12912-0.15099 0.0639-5e-3 0.121 0.0335 0.14252 0.0907"/>
     <path d="m216.58 191.31c-3.4e-4 0 0.14993 0.28963 0.36372 0.72531 0.20955 0.43815 0.4833 1.0231 0.75106 1.6087 0.13194 0.29386 0.27482 0.58102 0.39652 0.8576 0.13124 0.27023 0.25577 0.5207 0.35631 0.74048 0.11007 0.21202 0.20179 0.38911 0.26599 0.51329 0.0625 0.1263 0.0981 0.19862 0.0981 0.19862l6e-3 0.0123c0.0342 0.0695 6e-3 0.15275-0.0632 0.18697-0.06 0.0293-0.13088 0.0116-0.1711-0.0388 0 0-0.0512-0.0646-0.14146-0.1778-0.0438-0.0582-0.097-0.12877-0.15805-0.2092-0.0596-0.0818-0.13476-0.17074-0.20002-0.27587-0.13088-0.2092-0.28293-0.45543-0.43498-0.72425-0.14252-0.2727-0.29598-0.56409-0.43356-0.86148-0.13229-0.29916-0.27129-0.59655-0.37853-0.88371-0.11324-0.28469-0.21167-0.55386-0.28716-0.7874-0.15452-0.46638-0.23107-0.78599-0.23107-0.78599-0.0183-0.0751 0.0275-0.1517 0.10265-0.17039 0.0639-0.0159 0.12912 0.0162 0.15875 0.0716"/>
     <path d="m218.94 190.36s0.20849 0.25577 0.48083 0.66569c0.13864 0.2032 0.28716 0.44874 0.44239 0.71403 0.15769 0.26387 0.30374 0.55809 0.45684 0.84843 0.1397 0.29774 0.2787 0.59513 0.39688 0.88053 0.10971 0.28998 0.21025 0.56056 0.28787 0.79551 0.12946 0.4826 0.19861 0.80469 0.19896 0.80469 0.0162 0.0755-0.0317 0.14958-0.10689 0.16581-0.0646 0.0138-0.12841-0.0194-0.15557-0.0765l-5e-3 -0.0113c3.4e-4 0-0.1397-0.29316-0.3235-0.73378-0.10477-0.21696-0.22648-0.4699-0.34995-0.74331-0.13264-0.27022-0.27375-0.55844-0.41522-0.84666-0.28928-0.57644-0.5782-1.1529-0.79481-1.5847-0.10548-0.21908-0.19332-0.40076-0.2547-0.52811-0.0603-0.12947-0.0949-0.20355-0.0949-0.20355-0.0325-0.0702-2e-3 -0.15346 0.0681-0.18662 0.0596-0.0275 0.12947-9e-3 0.16898 0.0399"/>
     <path d="m221.29 189.65s0.055 0.049 0.14464 0.14852c0.09 0.0991 0.21907 0.23918 0.35771 0.41769 0.1457 0.17498 0.29175 0.39476 0.45332 0.62794 0.0734 0.12065 0.14958 0.24589 0.22684 0.37289 0.0734 0.12982 0.15734 0.25612 0.22084 0.39405 0.067 0.13582 0.13335 0.27199 0.19932 0.40605 0.0677 0.13264 0.12382 0.26846 0.17251 0.40287 0.0963 0.26847 0.20073 0.51224 0.25259 0.73554 0.10759 0.44556 0.16192 0.74225 0.16227 0.74225 0.0138 0.0758-0.0367 0.14852-0.11218 0.16263-0.0639 0.0116-0.12559-0.0222-0.15169-0.0787l-6e-3 -0.013c3.4e-4 0-0.12524-0.26952-0.28752-0.67275-0.078-0.20249-0.20355-0.42757-0.31221-0.67627-0.10442-0.25083-0.25788-0.50095-0.38382-0.76271-0.13053-0.25964-0.28363-0.50871-0.40887-0.75177-0.13758-0.23742-0.26564-0.45861-0.37571-0.6484-0.22225-0.3803-0.37077-0.63395-0.37077-0.63395-0.0395-0.067-0.0166-0.1531 0.0504-0.19261 0.054-0.0314 0.1196-0.0233 0.16405 0.0155l5e-3 4e-3"/>
    </g>
   </g>
   <g transform="translate(21.393 -78.506)">
    <rect id="piedGauche" x="163.65" y="223.25" width="2.0907" height="1.2993" ry=".64965" fill="#008000" opacity=".98"/>
    <rect id="piedDroit" transform="rotate(-10.943)" x="122.32" y="251.97" width="2.0907" height="1.2993" ry=".64965" fill="#008000" opacity=".98"/>
    <circle id="oeil" cx="166.63" cy="210.54" r=".55124" fill="#0b2817" opacity=".98"/>
    <ellipse id="tacheRousseur" cx="166.53" cy="212.28" rx="1.0691" ry=".60136" fill="#de8787" opacity=".98"/>
   </g>
   <path id="bouche" d="m185.28 134.97c0.43245-0.0329 0.86466-0.0658 1.1695-0.0473 0.30483 0.0185 0.48244 0.0883 0.65985 0.15804" fill="none" stroke="#000" stroke-width=".13197px"/>
   <polygon id="etoile" class="class1" transform="matrix(.26458 0 0 .26458 97.782 52.484)" points="277 73.2 281.9 83.1 292.9 84.7 284.9 92.5 286.8 103.4 277 98.2 267.2 103.4 269.1 92.5 261.1 84.7 272.1 83.1" fill="#fc0" onmouseover="fill:red"/>
   <g id="chapeau" transform="matrix(.53299 .13024 -.13024 .53299 127.06 -4.7136)">
    <path d="m173.66 171.18s-12.501 7.4415-11.007 33.164h19.639s0.70485-24.227-8.6325-33.164" fill="#c6222b"/>
    <g fill="#fff">
     <path d="m178.03 177.79c-0.4572-1.0439-0.96238-2.0405-1.5219-2.9722-2.4296 0.40887-4.8002 0.50588-6.9924 0.42086-0.66428 0.86748-1.3571 1.8944-2.038 3.0935 3.1697 0.26988 6.7991 0.21872 10.552-0.54222"/>
     <path d="m180.07 183.82c-0.2674-1.035-0.56585-2.0595-0.90064-3.0607-4.7614 1.2644-9.4664 1.1818-13.24 0.69321-0.40781 0.94897-0.79728 1.9738-1.1575 3.0815 1.8514 0.27516 3.9349 0.46602 6.1627 0.46602 2.872 0 5.9831-0.32068 9.1355-1.18"/>
     <path d="m182.03 196.27c-0.0797-1.0322-0.18203-2.1283-0.31256-3.2667-7.0111 2.619-14.243 1.9399-18.88 0.98601-0.10513 1.0312-0.18557 2.1047-0.23672 3.2212 2.3206 0.46284 5.1827 0.84349 8.3323 0.84349 3.4664 0 7.2792-0.46708 11.097-1.784"/>
     <path d="m181.31 189.98c-0.15946-1.0418-0.34431-2.1004-0.55915-3.1626-6.1909 2.0482-12.453 1.6408-16.86 0.85019-0.23777 0.99448-0.45156 2.0408-0.63465 3.1443 2.1953 0.40428 4.8151 0.71755 7.6729 0.71755 3.2498 0 6.8044-0.41204 10.381-1.5494"/>
    </g>
    <g fill="#cdcbc9">
     <path d="m178.02 177.78c-0.34043-0.77752-0.70873-1.5286-1.1056-2.2461-2e-3 -6e-3 -6e-3 -0.012-0.01-0.0176-0.12806-0.23212-0.25929-0.46072-0.39441-0.68544-3e-3 -5e-3 -6e-3 -0.0102-8e-3 -0.0152-0.97543 0.16404-1.9392 0.27587-2.8882 0.34748 0.0864 0.94263 0.16827 2.0218 0.22895 3.2039 1.3638-0.10618 2.7637-0.2921 4.1811-0.57926-1e-3 -3e-3 -3e-3 -5e-3 -4e-3 -8e-3"/>
     <path d="m179.17 180.77c-1e-3 -2e-3 -2e-3 -6e-3 -2e-3 -8e-3 -1.7632 0.46814-3.5182 0.75072-5.2218 0.89712 0.01 1.0361-2e-3 2.1152-0.0427 3.223 1.9985-0.15946 4.0721-0.4886 6.1652-1.0594-0.133-0.51329-0.2727-1.023-0.42157-1.53-2e-3 -6e-3 -4e-3 -0.0138-6e-3 -0.0205-0.14817-0.50553-0.30515-1.0068-0.47061-1.5025"/>
     <path d="m181.9 194.74c-4e-3 -0.0427-8e-3 -0.0847-0.0116-0.1277-0.024-0.24518-0.0483-0.49283-0.0737-0.74295-1e-3 -0.0102-3e-3 -0.0201-4e-3 -0.0303-0.0289-0.27693-0.0593-0.55563-0.0924-0.8382-3.0572 1.1416-6.1567 1.6566-9.065 1.7949-0.2614 1.1038-0.57114 2.1908-0.93521 3.2466 3.2533-0.0663 6.7818-0.55633 10.313-1.7748-0.0198-0.25435-0.0402-0.51259-0.0635-0.7747-3.4e-4 -0.0134-2e-3 -0.0272-3e-3 -0.0402-0.0201-0.23495-0.0416-0.47308-0.0646-0.71262"/>
     <path d="m181.31 189.97c-0.15981-1.04-0.34467-2.0962-0.5588-3.157-2.3795 0.78705-4.7678 1.209-7.0587 1.3878-0.0977 1.0763-0.22754 2.1639-0.39475 3.2491 2.5746-0.16298 5.2878-0.60713 8.0126-1.4743 0-2e-3 -3.5e-4 -4e-3 -3.5e-4 -6e-3"/>
    </g>
    <path d="m176.94 169.58c0 2.1001-1.7025 3.8029-3.8022 3.8029-2.1004 0-3.8036-1.7029-3.8036-3.8029 0-2.1001 1.7032-3.803 3.8036-3.803 2.0997 0 3.8022 1.7029 3.8022 3.803" fill="#fff"/>
    <path d="m173.66 165.82c0.48225 0.63712 0.77153 1.4284 0.77153 2.2888 0 2.1001-1.7025 3.8029-3.8033 3.8029-0.17709 0-0.35066-0.0162-0.52246-0.0399 0.69462 0.91793 1.7921 1.5141 3.0325 1.5141 2.0997 0 3.8022-1.7029 3.8022-3.803 0-1.9226-1.427-3.5077-3.2805-3.7631" fill="#cdcbc9"/>
    <path d="m180.49 202.65c-1.3356 0-1.3356-2.1146-2.6712-2.1146-1.3342 0-1.3342 2.1146-2.6684 2.1146-1.3356 0-1.3356-2.1146-2.6705-2.1146-1.3342 0-1.3342 2.1146-2.6684 2.1146s-1.3342-2.1146-2.6688-2.1146c-1.3342 0-1.3342 2.1146-2.6677 2.1146-1.3349 0-1.3349-2.1146-2.6695-2.1146v10.031c0 1.4598 1.1829 2.6427 2.6423 2.6427h16.07c1.4598 0 2.643-1.1829 2.643-2.6427v-10.031c-1.3356 0-1.3356 2.1146-2.6712 2.1146" fill="#569436"/>
    <path d="m167.43 213.21h13.089c1.4598 0 2.643-1.1829 2.643-2.6427v-10.031c-1.3356 0-1.3356 2.1146-2.6712 2.1146s-1.3356-2.1146-2.6712-2.1146c-1.3342 0-1.3342 2.1146-2.6684 2.1146 0 0-0.89747 7.5699-7.7209 10.559" fill="#497b37"/>
   </g>
  </g>
  <ellipse transform="matrix(.9924 .12303 .19921 -.97996 0 0)" cx="74.654" cy="-271.48" rx="8.7572" ry="2.8157" fill="none" opacity=".621"/>
  <path d="m12.713 280.29c1.6201 0.27868 3.24 0.55734 5.0631 0.48415 1.823-0.0732 3.8495-0.4982 5.8755-0.92313" fill="none" stroke="#a00" stroke-width=".23568px"/>
  <g fill="#fff">
   <path d="m14.252 276.24 0.13039 0.0497-0.55862 1.4661q-0.0712 0.18688-0.24368 0.27378-0.17302 0.0884-0.34687 0.0221l0.0425-0.11155q0.11735 0.0447 0.24056-0.0261 0.12414-0.0688 0.17713-0.2079zm0.0745-0.36976q0.0182-0.0478 0.0648-0.0699 0.048-0.0215 0.0959-3e-3 0.0478 0.0182 0.0694 0.0662 0.0215 0.048 3e-3 0.0958-0.0188 0.0493-0.0668 0.0708-0.0475 0.0201-0.0953 2e-3 -0.0478-0.0182-0.0699-0.0648-0.0201-0.0475-1e-3 -0.0967z"/>
   <path d="m15.005 276.35q0.16278 0 0.31161 0.0636t0.25735 0.17208q0.10852 0.10852 0.17208 0.2589 0.0636 0.15038 0.0636 0.31471 0 0.16588-0.0636 0.31626t-0.17208 0.2589q-0.10852 0.10697-0.25735 0.17208-0.14883 0.0636-0.31161 0.0636-0.33331 0-0.56896-0.2372-0.23564-0.23719-0.23564-0.57361 0-0.22014 0.10697-0.40617 0.10852-0.18759 0.29301-0.29456 0.18603-0.10852 0.40462-0.10852zm-0.66662 0.80925q0 0.2775 0.19533 0.47594 0.19689 0.19689 0.47439 0.19689t0.47284-0.19689q0.19689-0.19844 0.19689-0.47594 0-0.27595-0.19689-0.47284-0.19534-0.19688-0.47284-0.19688t-0.47439 0.19688q-0.19533 0.19689-0.19533 0.47284z"/>
   <path d="m15.927 276.65 0.13592 0.0433 0.0952 1.4862 0.92421-1.1621 0.14183 0.0451-1.5823 1.994-0.14185-0.0451 0.53485-0.67424z"/>
   <path d="m17.222 277.76 1.1205 0.22332q3e-3 -0.23806-0.12523-0.41858-0.12842-0.1805-0.33216-0.22112-0.20221-0.0403-0.39003 0.0772-0.18629 0.11778-0.2731 0.33919zm1.2438 0.38227-1.2908-0.25729q-0.0543 0.27214 0.0781 0.49615 0.1324 0.22398 0.36503 0.27035 0.15355 0.0306 0.3174-0.0221 0.16382-0.0527 0.26895-0.17561l0.10646 0.0924q-0.1258 0.14723-0.32791 0.2176-0.20184 0.0689-0.3934 0.0307-0.19309-0.0385-0.33426-0.17887-0.13964-0.14007-0.19602-0.341-0.0546-0.20215-0.0121-0.41499 0.0421-0.21133 0.17126-0.37529 0.13061-0.16367 0.31483-0.23918 0.18602-0.0768 0.37911-0.0383 0.18244 0.0364 0.31934 0.16641 0.13874 0.1288 0.20301 0.31393 0.0643 0.18512 0.0416 0.3861z"/>
   <path d="m18.723 277.37 0.13904 0.0117-0.0812 0.96864q-0.017 0.20238 0.0933 0.35319 0.11025 0.15082 0.28638 0.16559 0.17765 0.0149 0.31767-0.11494 0.14168-0.13124 0.15852-0.33208l0.0812-0.96864 0.13904 0.0117-0.0812 0.96864q-0.0214 0.25491-0.2021 0.42488-0.18059 0.16844-0.4185 0.14849-0.23637-0.0198-0.38638-0.21598-0.14834-0.19757-0.12696-0.45247z"/>
   <path d="m21.031 277.81-0.12867 0.045q-0.0326-0.10387-0.11007-0.15813-0.0775-0.0558-0.16588-0.0558-0.10232 0-0.17519 0.0651-0.0713 0.0651-0.0713 0.17673 0 0.0589 0.0326 0.10697 0.0325 0.0481 0.0853 0.0791 0.0527 0.031 0.11937 0.0636 0.0682 0.0325 0.13798 0.0605 0.0698 0.0279 0.13643 0.0698 0.0682 0.0419 0.12092 0.0899 0.0527 0.0481 0.0853 0.12402 0.0326 0.076 0.0326 0.17053 0 0.21549-0.15348 0.35037-0.15348 0.13333-0.35657 0.13333-0.0884 0-0.16898-0.0279-0.0806-0.0295-0.14883-0.0853-0.0682-0.0558-0.11627-0.14882-0.0481-0.093-0.062-0.21239l0.13798-0.0202q0.0217 0.17674 0.12247 0.26665 0.10232 0.0899 0.23875 0.0899 0.14417 0 0.25579-0.0961 0.11162-0.0977 0.11162-0.2496 0-0.0837-0.0419-0.14727-0.0419-0.0651-0.10852-0.10542-0.0651-0.0403-0.14573-0.076-0.0806-0.0357-0.16123-0.0729-0.0806-0.0372-0.14728-0.0806-0.0651-0.045-0.10697-0.11627-0.0419-0.0729-0.0419-0.16588 0-0.17363 0.11472-0.27595 0.11628-0.10232 0.27441-0.10232 0.13022 0 0.24339 0.0791 0.11317 0.0775 0.16123 0.22635z"/>
   <path d="m21.532 278.2 1.1391-0.0894q-0.0616-0.22998-0.23424-0.36882-0.17263-0.13883-0.37973-0.12257-0.20555 0.0161-0.3544 0.18022-0.14729 0.16396-0.1707 0.40062zm1.3008 0.03-1.3122 0.10304q0.0217 0.27664 0.21 0.45625 0.18826 0.1796 0.42474 0.16103 0.1561-0.0123 0.29946-0.10747 0.14336-0.0952 0.21114-0.24207l0.12756 0.06q-0.0811 0.17587-0.25647 0.2985-0.17555 0.12109-0.37028 0.13638-0.19629 0.0154-0.37027-0.0813-0.17245-0.0969-0.28129-0.27492-0.1074-0.17974-0.12439-0.39611-0.0169-0.21483 0.0629-0.40769 0.0812-0.193 0.23801-0.31572 0.15818-0.12438 0.35446-0.1398 0.18546-0.0146 0.35254 0.0734 0.1685 0.0863 0.28065 0.24699 0.11212 0.16069 0.14492 0.36028z"/>
   <path d="m23.932 277.69-0.12868 0.045q-0.0326-0.10387-0.11007-0.15813-0.0775-0.0558-0.16588-0.0558-0.10232 0-0.17518 0.0651-0.0713 0.0651-0.0713 0.17673 0 0.0589 0.0326 0.10697 0.0326 0.0481 0.0853 0.0791t0.11937 0.0636q0.0682 0.0325 0.13798 0.0605 0.0698 0.0279 0.13642 0.0698 0.0682 0.0419 0.12092 0.0899 0.0527 0.0481 0.0853 0.12402 0.0326 0.076 0.0326 0.17053 0 0.21549-0.15348 0.35037-0.15348 0.13333-0.35657 0.13333-0.0884 0-0.16898-0.0279-0.0806-0.0295-0.14883-0.0853-0.0682-0.0558-0.11627-0.14882-0.0481-0.093-0.062-0.21239l0.13797-0.0202q0.0217 0.17674 0.12248 0.26665 0.10232 0.0899 0.23874 0.0899 0.14418 0 0.2558-0.0961 0.11162-0.0977 0.11162-0.2496 0-0.0837-0.0419-0.14727-0.0419-0.0651-0.10852-0.10542-0.0651-0.0403-0.14573-0.076-0.0806-0.0357-0.16123-0.0729-0.0806-0.0372-0.14727-0.0806-0.0651-0.045-0.10697-0.11627-0.0419-0.0729-0.0419-0.16588 0-0.17363 0.11472-0.27595 0.11627-0.10232 0.2744-0.10232 0.13023 0 0.2434 0.0791 0.11317 0.0775 0.16123 0.22635z"/>
   <path d="m15.257 283.11 0.16521-1.4245-0.13089-0.0152 0.0159-0.13706 0.13089 0.0152 0.0161-0.13859q0.0297-0.25564 0.21704-0.41807 0.18893-0.16224 0.42456-0.13491l-0.0104 0.0893q-0.17248-0.02-0.32231 0.12805-0.14965 0.14651-0.1734 0.35133l-0.0161 0.13859 0.43427 0.0504-0.0621 0.1317-0.38806-0.045-0.16522 1.4245z"/>
   <path d="m17.202 280.26h0.10077l0.37362 0.41083h-0.18914l-0.23564-0.2558-0.23719 0.2558h-0.18604zm-0.51315 1.3426h1.1426q-0.0434-0.2341-0.20464-0.38603-0.16123-0.15192-0.36897-0.15192-0.20619 0-0.36742 0.15192-0.15968 0.15193-0.20154 0.38603zm1.2945 0.13797h-1.3162q0 0.27751 0.17208 0.46819 0.17364 0.19069 0.41238 0.19069 0.15193 0 0.2806-0.0822 0.13023-0.0822 0.21084-0.22634l0.11783 0.0698q-0.0961 0.17519-0.2589 0.28061-0.16123 0.10387-0.35037 0.10387-0.19689 0-0.36277-0.11008-0.16433-0.11007-0.2589-0.2961-0.093-0.18759-0.093-0.40463 0-0.21549 0.0946-0.40152 0.0961-0.18604 0.262-0.29611 0.16743-0.11162 0.36432-0.11162 0.18604 0 0.34572 0.10077 0.16123 0.0992 0.26045 0.2682 0.0992 0.16898 0.11627 0.37052z"/>
   <path d="m18.884 282.76-0.13854 0.0166-0.16963-1.4239-0.13699 0.0165-0.0165-0.137 0.137-0.0165-0.0441-0.36945 0.13854-0.0166 0.044 0.36947 0.43103-0.0513-0.0298 0.14251-0.38485 0.0459z"/>
   <path d="m19.671 281.43 1.1206-0.22281q-0.0882-0.22114-0.27599-0.33871-0.18776-0.11756-0.39151-0.077-0.20223 0.0402-0.33074 0.22065-0.12699 0.18016-0.12239 0.41792zm1.2953-0.1232-1.2909 0.25668q0.0541 0.27217 0.2622 0.42838 0.20809 0.15621 0.44074 0.10995 0.15357-0.0305 0.28473-0.14195 0.13117-0.11142 0.18121-0.26522l0.13373 0.0446q-0.0598 0.18418-0.21957 0.3266-0.16009 0.14089-0.35167 0.17898-0.19311 0.0384-0.37727-0.0372-0.18264-0.0759-0.31168-0.23993-0.12779-0.16585-0.17012-0.37872-0.042-0.21136 0.0145-0.41226 0.058-0.20121 0.19922-0.34152 0.14245-0.14213 0.33556-0.18052 0.18246-0.0363 0.35872 0.0314 0.17748 0.0659 0.30775 0.21226 0.13025 0.1464 0.1863 0.34074z"/>
  </g>
 </g>
</svg>
