<?xml version="1.0" encoding="UTF-8" standalone="no"?>
<!-- Created with Inkscape (http://www.inkscape.org/) -->

<svg
   xmlns:dc="http://purl.org/dc/elements/1.1/"
   xmlns:cc="http://creativecommons.org/ns#"
   xmlns:rdf="http://www.w3.org/1999/02/22-rdf-syntax-ns#"
   xmlns:svg="http://www.w3.org/2000/svg"
   xmlns="http://www.w3.org/2000/svg"
   xmlns:sodipodi="http://sodipodi.sourceforge.net/DTD/sodipodi-0.dtd"
   xmlns:inkscape="http://www.inkscape.org/namespaces/inkscape"
   width="210mm"
   height="297mm"
   viewBox="0 0 210 297"
   version="1.1"
   id="svg10394"
   inkscape:version="0.92.3 (2405546, 2018-03-11)"
   sodipodi:docname="boule.svg">
  <defs
     id="defs10388">
    <inkscape:path-effect
       effect="bspline"
       id="path-effect11006"
       is_visible="true"
       weight="33.333333"
       steps="2"
       helper_size="0"
       apply_no_weight="true"
       apply_with_weight="true"
       only_selected="false" />
    <inkscape:path-effect
       effect="bspline"
       id="path-effect11002"
       is_visible="true"
       weight="33.333333"
       steps="2"
       helper_size="0"
       apply_no_weight="true"
       apply_with_weight="true"
       only_selected="false" />
  </defs>
  <sodipodi:namedview
     id="base"
     pagecolor="#ffffff"
     bordercolor="#666666"
     borderopacity="1.0"
     inkscape:pageopacity="0.0"
     inkscape:pageshadow="2"
     inkscape:zoom="1.4"
     inkscape:cx="260.52204"
     inkscape:cy="590.90868"
     inkscape:document-units="mm"
     inkscape:current-layer="layer1"
     showgrid="false"
     inkscape:pagecheckerboard="true"
     inkscape:window-width="1920"
     inkscape:window-height="1052"
     inkscape:window-x="1920"
     inkscape:window-y="0"
     inkscape:window-maximized="1" />
  <metadata
     id="metadata10391">
    <rdf:RDF>
      <cc:Work
         rdf:about="">
        <dc:format>image/svg+xml</dc:format>
        <dc:type
           rdf:resource="http://purl.org/dc/dcmitype/StillImage" />
        <dc:title></dc:title>
      </cc:Work>
    </rdf:RDF>
  </metadata>
  <g
     inkscape:label="Calque 1"
     inkscape:groupmode="layer"
     id="layer1">
    <rect
       style="opacity:0.98000004;fill:#483e37;fill-opacity:1;stroke:none;stroke-width:0.48081192;stroke-linecap:round;stroke-linejoin:round;stroke-miterlimit:4;stroke-dasharray:none;stroke-dashoffset:0;stroke-opacity:1"
       id="rect823-3"
       width="79.217644"
       height="8.2647629"
       x="65.143898"
       y="201.37508" />
    <path
       style="opacity:0.98000004;fill:#ffffff;fill-opacity:0.37341775;stroke:#faffff;stroke-width:0.616;stroke-miterlimit:4;stroke-dasharray:none;stroke-dashoffset:0;stroke-opacity:1"
       d="m 165.36458,139.92859 a 60.287205,60.287205 0 0 1 -60.2872,60.2872 60.287205,60.287205 0 0 1 -60.287207,-60.2872 60.287205,60.287205 0 0 1 60.287207,-60.287206 60.287205,60.287205 0 0 1 60.2872,60.287206 z"
       id="path817" />
    <rect
       height="26.89994"
       width="10.363419"
       y="160.7509"
       x="97.45163"
       id="XMLID_117_"
       style="fill:#c49a6c;stroke-width:0.24255306" />
    <polygon
       transform="matrix(0.25588688,0,0,0.22991403,-40.420225,81.269614)"
       points="622.5,212.9 495.5,212.9 559,106.4 "
       id="XMLID_116_"
       style="fill:#3cb54a" />
    <polygon
       transform="matrix(0.25588688,0,0,0.22991403,-40.420225,81.269614)"
       points="647.5,294 470.5,294 559,145.5 "
       id="XMLID_115_"
       style="fill:#3cb54a" />
    <polygon
       transform="matrix(0.25588688,0,0,0.22991403,-40.420225,81.269614)"
       points="680.5,389.4 437.5,389.4 559,185.6 "
       id="XMLID_114_"
       style="fill:#3cb54a" />
    <path
       d="m 102.64613,122.63114 c 0.33265,0.25291 0.74207,0.41385 1.07472,0.66676 1.17708,0.87367 1.33062,2.43708 1.40738,3.81657 0.15354,2.96589 0.38383,5.93178 0.63972,8.89767 0.0768,0.68974 0.33265,1.56342 1.10031,1.63239 0.84443,0.046 1.20267,-0.91966 1.27944,-1.67837 0.33265,-4.50632 -0.61413,-9.26554 1.48414,-13.35801 0.63972,-1.24153 1.8168,-2.48307 3.35212,-2.43708 0.38383,0.023 0.84443,0.092 1.1259,-0.13795 0.2303,-0.20693 0.20471,-0.5518 0.12795,-0.82769 -0.33266,-1.33351 -1.12591,-2.50607 -1.91916,-3.65564 -2.58445,-3.77059 -5.73186,-6.98939 -8.1372,-10.82895 -0.33265,-0.52879 -0.74207,-1.10358 -1.40738,-1.17255 -0.69089,-0.046 -1.25384,0.50581 -1.63767,1.01161 -0.87002,1.12658 -1.279437,2.25316 -1.919149,3.42572 -0.716489,1.31051 -1.970328,2.32213 -2.68682,3.65563 -0.614119,1.12658 -0.81883,2.667 0.230301,3.49469 0.358241,0.2759 0.79325,0.43684 1.202669,0.64376 2.942699,1.58641 2.302979,5.1041 4.682729,6.85144 z"
       id="XMLID_137_"
       inkscape:connector-curvature="0"
       style="fill:#ffffff;stroke-width:0.24255306" />
    <ellipse
       style="opacity:0.98000004;fill:#ffffff;fill-opacity:0.37341775;stroke:none;stroke-width:0.35371706;stroke-linecap:round;stroke-linejoin:round;stroke-miterlimit:4;stroke-dasharray:none;stroke-dashoffset:0;stroke-opacity:1"
       id="path1525"
       cx="-31.403679"
       cy="128.82397"
       rx="21.606386"
       ry="4.013701"
       transform="matrix(0.80007437,-0.59990083,0.77744482,0.62895115,0,0)" />
    <rect
       style="opacity:0.98000004;fill:#917c6f;fill-opacity:1;stroke:none;stroke-width:0.54919839;stroke-miterlimit:4;stroke-dasharray:none;stroke-dashoffset:0;stroke-opacity:1"
       id="rect823-6"
       width="97.139862"
       height="11.717262"
       x="55.915123"
       y="208.12794"
       ry="5.8586311"
       rx="4.7247024" />
    <g
       id="g13320"
       transform="matrix(0.92941179,0,0,0.92941179,29.993913,-50.174994)">
      <g
         id="g13327"
         transform="matrix(0.80952387,0,0,0.80952387,11.944111,43.735636)">
        <g
           id="g13267"
           transform="translate(-17.207004,67.449649)"
           clip-path="none">
          <path
             style="opacity:0.98000004;fill:#ffffff;fill-opacity:1;stroke:none;stroke-width:0.82456523;stroke-linecap:round;stroke-linejoin:round;stroke-miterlimit:4;stroke-dasharray:none;stroke-dashoffset:0;stroke-opacity:1"
             d="m 90.604376,190.22582 a 19.37704,9.7553379 0 0 1 -19.37704,9.75533 19.37704,9.7553379 0 0 1 -19.377039,-9.75533 19.37704,9.7553379 0 0 1 19.377039,-9.75534 19.37704,9.7553379 0 0 1 19.37704,9.75534 z"
             id="path13258"
             inkscape:connector-curvature="0" />
          <path
             style="opacity:0.98000004;fill:#ffffff;fill-opacity:1;stroke:none;stroke-width:0.74599999;stroke-linecap:round;stroke-linejoin:round;stroke-miterlimit:4;stroke-dasharray:none;stroke-dashoffset:0;stroke-opacity:1"
             d="m 132.83296,193.43306 a 26.326048,10.824416 0 0 1 -26.32605,10.82442 26.326048,10.824416 0 0 1 -26.326046,-10.82442 26.326048,10.824416 0 0 1 26.326046,-10.82442 26.326048,10.824416 0 0 1 26.32605,10.82442 z"
             id="path13260"
             inkscape:connector-curvature="0" />
          <path
             style="opacity:0.98000004;fill:#ffffff;fill-opacity:1;stroke:none;stroke-width:0.72691756;stroke-linecap:round;stroke-linejoin:round;stroke-miterlimit:4;stroke-dasharray:none;stroke-dashoffset:0;stroke-opacity:1"
             d="m 152.87817,188.75584 a 19.644312,12.561668 0 0 1 -19.64431,12.56166 19.644312,12.561668 0 0 1 -19.64432,-12.56166 19.644312,12.561668 0 0 1 19.64432,-12.56167 19.644312,12.561668 0 0 1 19.64431,12.56167 z"
             id="path13262"
             inkscape:connector-curvature="0" />
        </g>
        <ellipse
           style="opacity:0.98000004;fill:#ffffff;fill-opacity:1;stroke:none;stroke-width:0.81137729;stroke-linecap:round;stroke-linejoin:round;stroke-miterlimit:4;stroke-dasharray:none;stroke-dashoffset:0;stroke-opacity:1"
           id="path13313"
           cx="84.858078"
           cy="261.45316"
           rx="47.173073"
           ry="9.8889723" />
      </g>
    </g>
    <rect
       style="opacity:0.98000004;fill:#917c6f;fill-opacity:1;stroke:none;stroke-width:0.57122904;stroke-miterlimit:4;stroke-dasharray:none;stroke-dashoffset:0;stroke-opacity:1"
       id="rect823"
       width="83.532738"
       height="14.741072"
       x="62.933052"
       y="187.55359"
       ry="4.5357141" />
    <rect
       style="opacity:0.98000004;fill:#6c5353;fill-opacity:1;stroke:none;stroke-width:0.74599993;stroke-linecap:round;stroke-linejoin:round;stroke-miterlimit:4;stroke-dasharray:none;stroke-dashoffset:0;stroke-opacity:1"
       id="rect1435"
       width="1.5119048"
       height="19.087799"
       x="88.175766"
       y="182.42032"
       transform="rotate(-8.6511214)" />
    <rect
       style="opacity:0.98000004;fill:#6c5353;fill-opacity:1;stroke:none;stroke-width:0.74599993;stroke-linecap:round;stroke-linejoin:round;stroke-miterlimit:4;stroke-dasharray:none;stroke-dashoffset:0;stroke-opacity:1"
       id="rect1435-0"
       width="1.5119048"
       height="19.087799"
       x="94.887688"
       y="183.53709"
       transform="rotate(-8.6511214)" />
    <rect
       style="opacity:0.98000004;fill:#6c5353;fill-opacity:1;stroke:none;stroke-width:0.74599999;stroke-linecap:round;stroke-linejoin:round;stroke-miterlimit:4;stroke-dasharray:none;stroke-dashoffset:0;stroke-opacity:1"
       id="rect1467"
       width="6.8035712"
       height="1.1339285"
       x="116.22768"
       y="171.3951" />
    <rect
       style="opacity:0.98000004;fill:#6c5353;fill-opacity:1;stroke:none;stroke-width:0.74599999;stroke-linecap:round;stroke-linejoin:round;stroke-miterlimit:4;stroke-dasharray:none;stroke-dashoffset:0;stroke-opacity:1"
       id="rect1467-9"
       width="6.8035712"
       height="1.1339285"
       x="116.98365"
       y="176.30879" />
    <rect
       style="opacity:0.98000004;fill:#6c5353;fill-opacity:1;stroke:none;stroke-width:0.74599999;stroke-linecap:round;stroke-linejoin:round;stroke-miterlimit:4;stroke-dasharray:none;stroke-dashoffset:0;stroke-opacity:1"
       id="rect1467-4"
       width="6.8035712"
       height="1.1339285"
       x="117.9286"
       y="181.64771" />
    <g
       id="g9987"
       transform="rotate(14.188196,378.49809,-16.48267)">
      <rect
         y="224.97086"
         x="173.85883"
         height="0.73499119"
         width="1.1693041"
         id="rect9952"
         style="opacity:0.98000004;fill:#d40000;fill-opacity:1;stroke:none;stroke-width:0.74599999;stroke-linecap:round;stroke-linejoin:round;stroke-miterlimit:4;stroke-dasharray:none;stroke-dashoffset:0;stroke-opacity:1" />
      <rect
         y="225.70584"
         x="173.85883"
         height="0.73499119"
         width="1.1693041"
         id="rect9952-9"
         style="opacity:0.98000004;fill:#ffffff;fill-opacity:1;stroke:none;stroke-width:0.74599999;stroke-linecap:round;stroke-linejoin:round;stroke-miterlimit:4;stroke-dasharray:none;stroke-dashoffset:0;stroke-opacity:1" />
      <rect
         y="226.44083"
         x="173.85883"
         height="0.73499119"
         width="1.1693041"
         id="rect9952-98"
         style="opacity:0.98000004;fill:#d40000;fill-opacity:1;stroke:none;stroke-width:0.74599999;stroke-linecap:round;stroke-linejoin:round;stroke-miterlimit:4;stroke-dasharray:none;stroke-dashoffset:0;stroke-opacity:1" />
      <rect
         y="227.17581"
         x="173.85883"
         height="0.73499119"
         width="1.1693041"
         id="rect9952-93"
         style="opacity:0.98000004;fill:#f9f9f9;fill-opacity:1;stroke:none;stroke-width:0.74599999;stroke-linecap:round;stroke-linejoin:round;stroke-miterlimit:4;stroke-dasharray:none;stroke-dashoffset:0;stroke-opacity:1" />
    </g>
    <rect
       style="opacity:0.98000004;fill:#a02c2c;fill-opacity:1;stroke:none;stroke-width:0.74599999;stroke-linecap:round;stroke-linejoin:round;stroke-miterlimit:4;stroke-dasharray:none;stroke-dashoffset:0;stroke-opacity:1"
       id="rect9950"
       width="7.8518925"
       height="10.439734"
       x="155.25182"
       y="123.85658"
       transform="rotate(13.703101)"
       ry="1.6369244" />
    <path
       style="opacity:0.98000004;fill:#ffccaa;fill-opacity:1;stroke:none;stroke-width:0.67725956;stroke-linecap:round;stroke-linejoin:round;stroke-miterlimit:4;stroke-dasharray:none;stroke-dashoffset:0;stroke-opacity:1"
       d="m 121.43874,152.90478 9.85209,2.32585 -2.48696,8.86538 -9.71096,-2.45155 z"
       id="rect1996"
       inkscape:connector-curvature="0"
       sodipodi:nodetypes="ccccc" />
    <g
       id="g1994"
       transform="matrix(0.53299323,0.13023918,-0.13023918,0.53299323,61.449355,20.758395)">
      <path
         d="m 173.66169,171.17753 c 0,0 -12.50068,7.44149 -11.00702,33.16428 h 19.63949 c 0,0 0.70485,-24.22736 -8.63247,-33.16428"
         style="fill:#c6222b;fill-opacity:1;fill-rule:nonzero;stroke:none;stroke-width:0.03527778"
         id="path1612"
         inkscape:connector-curvature="0" />
      <path
         d="m 178.02696,177.78929 c -0.4572,-1.04387 -0.96238,-2.04047 -1.52188,-2.97215 -2.42958,0.40887 -4.80025,0.50588 -6.99241,0.42086 -0.66428,0.86748 -1.35714,1.89442 -2.038,3.09351 3.16971,0.26988 6.79909,0.21872 10.55229,-0.54222"
         style="fill:#ffffff;fill-opacity:1;fill-rule:nonzero;stroke:none;stroke-width:0.03527778"
         id="path1616"
         inkscape:connector-curvature="0" />
      <path
         d="m 180.06813,183.8239 c -0.2674,-1.03505 -0.56585,-2.05951 -0.90064,-3.0607 -4.76144,1.26436 -9.46644,1.18181 -13.2401,0.69321 -0.40781,0.94897 -0.79728,1.97379 -1.15747,3.08152 1.85138,0.27516 3.93489,0.46602 6.16268,0.46602 2.87196,0 5.98311,-0.32068 9.13553,-1.18005"
         style="fill:#ffffff;fill-opacity:1;fill-rule:nonzero;stroke:none;stroke-width:0.03527778"
         id="path1618"
         inkscape:connector-curvature="0" />
      <path
         d="m 182.02922,196.26708 c -0.0797,-1.03223 -0.18203,-2.12831 -0.31256,-3.26672 -7.0111,2.61902 -14.24269,1.93992 -18.8796,0.98601 -0.10513,1.03117 -0.18557,2.10467 -0.23672,3.22122 2.32057,0.46284 5.18266,0.84349 8.33226,0.84349 3.46639,0 7.27922,-0.46708 11.09662,-1.784"
         style="fill:#ffffff;fill-opacity:1;fill-rule:nonzero;stroke:none;stroke-width:0.03527778"
         id="path1620"
         inkscape:connector-curvature="0" />
      <path
         d="m 181.31344,189.97811 c -0.15946,-1.04175 -0.34431,-2.10044 -0.55915,-3.16265 -6.1909,2.04823 -12.45341,1.64077 -16.85996,0.85019 -0.23777,0.99448 -0.45156,2.04082 -0.63465,3.14431 2.19534,0.40428 4.81507,0.71755 7.67292,0.71755 3.24979,0 6.80438,-0.41204 10.38084,-1.5494"
         style="fill:#ffffff;fill-opacity:1;fill-rule:nonzero;stroke:none;stroke-width:0.03527778"
         id="path1622"
         inkscape:connector-curvature="0" />
      <path
         d="m 178.02343,177.78153 c -0.34043,-0.77752 -0.70873,-1.52859 -1.1056,-2.24614 -0.002,-0.006 -0.006,-0.012 -0.01,-0.0176 -0.12806,-0.23212 -0.25929,-0.46072 -0.39441,-0.68544 -0.003,-0.005 -0.006,-0.0102 -0.008,-0.0152 -0.97543,0.16404 -1.93922,0.27587 -2.88819,0.34748 0.0864,0.94263 0.16827,2.02177 0.22895,3.20393 1.36384,-0.10618 2.76366,-0.2921 4.18112,-0.57926 -0.001,-0.003 -0.003,-0.005 -0.004,-0.008"
         style="fill:#cdcbc9;fill-opacity:1;fill-rule:nonzero;stroke:none;stroke-width:0.03527778"
         id="path1624"
         inkscape:connector-curvature="0" />
      <path
         d="m 179.16996,180.77096 c -0.001,-0.002 -0.002,-0.006 -0.002,-0.008 -1.76318,0.46814 -3.51825,0.75072 -5.22182,0.89712 0.01,1.03611 -0.002,2.11525 -0.0427,3.22298 1.99849,-0.15946 4.07212,-0.4886 6.16515,-1.0594 -0.133,-0.51329 -0.2727,-1.02305 -0.42157,-1.52999 -0.002,-0.006 -0.004,-0.0138 -0.006,-0.0205 -0.14817,-0.50553 -0.30515,-1.00683 -0.47061,-1.50248"
         style="fill:#cdcbc9;fill-opacity:1;fill-rule:nonzero;stroke:none;stroke-width:0.03527778"
         id="path1626"
         inkscape:connector-curvature="0" />
      <path
         d="m 181.89799,194.73955 c -0.004,-0.0427 -0.008,-0.0847 -0.0116,-0.1277 -0.024,-0.24518 -0.0483,-0.49283 -0.0737,-0.74295 -0.001,-0.0102 -0.003,-0.0201 -0.004,-0.0303 -0.0289,-0.27693 -0.0593,-0.55563 -0.0924,-0.8382 -3.05717,1.14159 -6.15668,1.65664 -9.06498,1.79493 -0.2614,1.10384 -0.57114,2.19075 -0.93521,3.24662 3.25332,-0.0663 6.7818,-0.55633 10.31275,-1.77483 -0.0198,-0.25435 -0.0402,-0.51259 -0.0635,-0.7747 -3.4e-4,-0.0134 -0.002,-0.0272 -0.003,-0.0402 -0.0201,-0.23495 -0.0416,-0.47308 -0.0646,-0.71262"
         style="fill:#cdcbc9;fill-opacity:1;fill-rule:nonzero;stroke:none;stroke-width:0.03527778"
         id="path1628"
         inkscape:connector-curvature="0" />
      <path
         d="m 181.31309,189.97247 c -0.15981,-1.03999 -0.34467,-2.09621 -0.5588,-3.15701 -2.37949,0.78705 -4.7678,1.20897 -7.05874,1.38783 -0.0977,1.07632 -0.22754,2.16394 -0.39475,3.24908 2.57457,-0.16298 5.28778,-0.60713 8.01264,-1.47426 0,-0.002 -3.5e-4,-0.004 -3.5e-4,-0.006"
         style="fill:#cdcbc9;fill-opacity:1;fill-rule:nonzero;stroke:none;stroke-width:0.03527778"
         id="path1630"
         inkscape:connector-curvature="0" />
      <path
         d="m 176.93899,169.57839 c 0,2.10008 -1.7025,3.80294 -3.80224,3.80294 -2.10043,0 -3.80364,-1.70286 -3.80364,-3.80294 0,-2.10009 1.70321,-3.80295 3.80364,-3.80295 2.09974,0 3.80224,1.70286 3.80224,3.80295"
         style="fill:#ffffff;fill-opacity:1;fill-rule:nonzero;stroke:none;stroke-width:0.03527778"
         id="path1632"
         inkscape:connector-curvature="0" />
      <path
         d="m 173.65851,165.81531 c 0.48225,0.63712 0.77153,1.4284 0.77153,2.28882 0,2.10009 -1.70251,3.80294 -3.8033,3.80294 -0.17709,0 -0.35066,-0.0162 -0.52246,-0.0399 0.69462,0.91793 1.79211,1.51413 3.03247,1.51413 2.09974,0 3.80224,-1.70286 3.80224,-3.80295 0,-1.92264 -1.42698,-3.50767 -3.28048,-3.76308"
         style="fill:#cdcbc9;fill-opacity:1;fill-rule:nonzero;stroke:none;stroke-width:0.03527778"
         id="path1634"
         inkscape:connector-curvature="0" />
      <path
         d="m 180.49252,202.64989 c -1.33561,0 -1.33561,-2.11455 -2.67123,-2.11455 -1.3342,0 -1.3342,2.11455 -2.66841,2.11455 -1.33562,0 -1.33562,-2.11455 -2.67053,-2.11455 -1.3342,0 -1.3342,2.11455 -2.66841,2.11455 -1.3342,0 -1.3342,-2.11455 -2.66876,-2.11455 -1.33421,0 -1.33421,2.11455 -2.66771,2.11455 -1.33491,0 -1.33491,-2.11455 -2.66947,-2.11455 v 5.17313 1.67005 3.18735 c 0,1.4598 1.18287,2.64266 2.64231,2.64266 h 16.07044 c 1.45979,0 2.64301,-1.18286 2.64301,-2.64266 v -3.18735 -1.67005 -5.17313 c -1.33562,0 -1.33562,2.11455 -2.67124,2.11455"
         style="fill:#569436;fill-opacity:1;fill-rule:nonzero;stroke:none;stroke-width:0.03527778"
         id="path1636"
         inkscape:connector-curvature="0" />
      <path
         d="m 167.43199,213.20853 h 13.08876 c 1.45979,0 2.64301,-1.18286 2.64301,-2.64266 v -3.18735 -1.67005 -5.17313 c -1.33562,0 -1.33562,2.11455 -2.67124,2.11455 -1.33561,0 -1.33561,-2.11455 -2.67123,-2.11455 -1.3342,0 -1.3342,2.11455 -2.66841,2.11455 0,0 -0.89747,7.5699 -7.72089,10.55864"
         style="fill:#497b37;fill-opacity:1;fill-rule:nonzero;stroke:none;stroke-width:0.03527778"
         id="path1638"
         inkscape:connector-curvature="0" />
    </g>
    <rect
       style="opacity:0.98000004;fill:#008000;fill-opacity:1;stroke:none;stroke-width:0.74599999;stroke-linecap:round;stroke-linejoin:round;stroke-miterlimit:4;stroke-dasharray:none;stroke-dashoffset:0;stroke-opacity:1"
       id="rect10022"
       width="2.0906727"
       height="1.2992932"
       x="119.42868"
       y="170.21391"
       ry="0.64964658" />
    <circle
       style="opacity:0.98000004;fill:#0b2817;fill-opacity:1;stroke:none;stroke-width:0.74599999;stroke-linecap:round;stroke-linejoin:round;stroke-miterlimit:4;stroke-dasharray:none;stroke-dashoffset:0;stroke-opacity:1"
       id="path10039"
       cx="122.28675"
       cy="157.48331"
       r="0.55124336" />
    <ellipse
       style="opacity:0.98000004;fill:#de8787;fill-opacity:1;stroke:none;stroke-width:0.55648524;stroke-linecap:round;stroke-linejoin:round;stroke-miterlimit:4;stroke-dasharray:none;stroke-dashoffset:0;stroke-opacity:1"
       id="path10041"
       cx="122.18081"
       cy="159.22102"
       rx="1.0690781"
       ry="0.60135645" />
  </g>
</svg>
